<?xml version="1.0" encoding="UTF-8"?> <svg xmlns="http://www.w3.org/2000/svg" width="115.823" height="128.456" viewBox="0 0 115.823 128.456"><g id="Group_70" data-name="Group 70" transform="translate(-1422.5 -2377.28)"><path id="Union_1" data-name="Union 1" d="M50.13,94.907h0A30.185,30.185,0,0,1,20.907,57.059a24.4,24.4,0,0,1-13.759-41.4l.061-.06A24.4,24.4,0,0,1,41.761,50.069l-.093.094h0l-.007.007h0l0,0h0L38.625,53.2A16.269,16.269,0,0,0,61.631,76.212L78.147,59.7A30.2,30.2,0,0,1,63.212,8.9l.063-.064A30.213,30.213,0,0,1,106,51.562L71.491,86.073a30.1,30.1,0,0,1-21.359,8.835Zm23-76.212A16.269,16.269,0,0,0,96.062,41.782l.08-.08A16.269,16.269,0,0,0,73.174,18.655ZM17.008,25.522A10.459,10.459,0,0,0,31.705,40.4l.1-.1a10.458,10.458,0,1,0-14.79-14.79l0,0Z" transform="translate(1423 2377.78)" fill="#fd5a7f" stroke="rgba(0,0,0,0)" stroke-miterlimit="10" stroke-width="1"></path><g id="Group_34" data-name="Group 34" transform="translate(1439.852 2490.526)"><path id="Path_58" data-name="Path 58" d="M1378.4,605.392h2.48V617.5h6.159v2.356H1378.4Z" transform="translate(-1378.4 -605.144)" fill="#fd5a7f"></path><path id="Path_59" data-name="Path 59" d="M1403.951,605.392h2.481v14.466h-2.481Z" transform="translate(-1387.127 -605.144)" fill="#fd5a7f"></path><path id="Path_60" data-name="Path 60" d="M1426.427,620.353l-6.469-14.961h2.708l3.844,9.278,3.8-9.278h2.583Z" transform="translate(-1392.595 -605.144)" fill="#fd5a7f"></path><path id="Path_61" data-name="Path 61" d="M1464.285,612.5a7.318,7.318,0,1,1-7.315-7.481A7.2,7.2,0,0,1,1464.285,612.5Zm-2.521,0a4.805,4.805,0,1,0-4.794,5.125A4.827,4.827,0,0,0,1461.763,612.5Z" transform="translate(-1402.738 -605.015)" fill="#fd5a7f"></path><path id="Path_62" data-name="Path 62" d="M1493.341,605.392h2.48v14.466h-2.48v-6.22h-6.179v6.22h-2.48V605.392h2.48v5.89h6.179Z" transform="translate(-1414.703 -605.144)" fill="#fd5a7f"></path></g></g></svg> 